<svg width="1418" height="954" viewBox="0 0 1418 954" fill="none" xmlns="http://www.w3.org/2000/svg">
<path d="M32.3738 355.433C9.62382 316.823 -0.426179 295.943 0.0138214 249.043C-0.156179 238.223 25.9838 292.293 69.2838 317.443C75.4838 320.353 48.3438 263.793 43.5938 238.173C40.3938 221.323 63.3938 267.883 115.744 287.453C128.954 269.973 127.254 259.673 116.444 225.963C113.114 214.843 144.694 254.693 171.874 262.503C176.044 263.573 185.484 213.073 198.374 196.253C201.874 190.943 206.394 209.363 209.994 217.653C229.004 261.433 260.434 289.533 305.344 302.453C354.434 316.553 409.954 309.923 460.434 313.523C480.984 314.983 604.394 320.503 696.114 374.673C734.024 397.073 770.804 423.513 808.864 447.403C833.474 462.843 872.994 476.273 933.424 462.113C965.834 454.523 960.644 458.073 974.654 431.393C984.514 415.003 999.254 392.113 1012.53 379.213C1040.63 349.073 1065.73 324.133 1100.37 300.763C1177.94 248.473 1210.51 189.303 1245.55 102.653C1250.69 89.9526 1250.62 68.1526 1250.61 62.4326C1251.27 52.8326 1258.24 78.0026 1267.3 66.2526C1274.63 56.7626 1276.17 37.2326 1279.24 41.9626C1282.12 45.7826 1283.38 48.4026 1286.75 52.9126C1289.72 58.0726 1300.48 32.3726 1302.8 33.1426C1306.56 34.0726 1302.01 57.3026 1310.89 61.6526C1317.38 64.4526 1322.58 50.6826 1327.42 41.5326C1330.06 36.5226 1330.79 34.8926 1334.23 30.2826C1339.48 23.9326 1343.6 57.4926 1343.81 62.6026C1345.63 109.123 1341.57 134.843 1328.98 179.913C1318.93 215.803 1293.86 242.273 1268.29 267.123C1231.59 302.783 1183.26 324.243 1138.74 348.233C1111.06 363.143 1086.29 380.903 1069.97 408.493C1066.16 414.913 1062.98 421.703 1059.41 428.233C1053.72 438.633 1057.88 444.963 1067.75 449.143C1072.49 451.153 1077.19 453.273 1081.81 455.543C1114.44 471.533 1128.04 497.123 1124.05 533.093C1123.01 542.553 1122.5 551.963 1123.73 569.053C1116.18 563.173 1107.77 561.863 1099.96 558.673C1084.07 555.163 1065.58 556.573 1052.08 561.743C967.044 591.203 952.154 646.953 872.694 697.983C855.704 708.893 843.324 723.973 829.024 751.563C799.454 800.463 796.844 808.493 767.154 857.303C748.794 887.473 732.424 922.273 703.684 943.303C695.974 948.923 676.504 955.313 670.344 952.353C658.864 946.883 661.194 928.763 663.874 918.843C677.194 869.583 693.264 826.173 707.644 777.203C711.414 764.293 704.894 751.273 697.464 740.733C688.044 727.373 645.744 669.853 635.834 653.133C628.844 641.363 623.044 637.223 610.044 632.313C599.974 628.483 582.484 622.843 572.314 619.333C523.344 602.353 391.994 554.363 367.504 553.753C359.084 553.543 346.454 551.653 335.514 545.203C320.304 536.223 319.384 531.453 301.554 527.903C285.974 524.823 180.694 490.543 151.204 469.283C138.734 460.303 115.624 451.683 97.6338 440.163C85.6638 432.503 70.9138 422.553 58.2338 415.983C32.8238 402.823 27.5338 392.623 12.4638 367.533C9.87382 363.233 4.10382 351.283 2.84382 345.543C0.423821 336.533 16.6038 355.503 32.3738 355.433Z" fill="#FFF0C3"/>
<path d="M42.3038 233.873C26.3938 191.973 19.9938 169.703 28.3438 123.543C29.9938 112.843 46.6538 170.553 85.0938 202.643C90.7038 206.563 73.4938 146.233 73.1238 120.173C72.8138 103.023 87.6338 152.803 135.934 180.913C151.904 165.913 151.964 155.473 146.984 120.423C145.574 108.903 169.984 153.503 195.464 165.783C199.394 167.543 217.214 119.353 232.754 104.943C237.104 100.293 238.444 119.213 240.604 127.993C251.964 174.353 278.204 207.343 320.294 227.653C366.304 249.833 422.144 252.653 471.294 264.703C491.304 269.603 612.014 295.843 693.294 364.703C726.894 393.173 758.684 425.433 792.164 455.403C813.824 474.763 850.494 494.263 912.464 490.903C941.574 489.323 939.984 491.513 958.284 467.573C970.764 453.073 989.144 432.993 1004.41 422.513C1037.19 397.543 1066.13 377.183 1104.21 359.993C1189.48 321.533 1231.56 268.693 1280.7 189.193C1287.9 177.533 1291.51 156.043 1292.46 150.403C1294.73 141.043 1297.35 167.033 1308.27 156.983C1317.1 148.863 1321.9 129.873 1324.13 135.043C1326.33 139.303 1327.12 142.093 1329.69 147.103C1331.75 152.693 1346.68 129.173 1348.84 130.313C1352.39 131.873 1344 154.003 1352.02 159.783C1357.95 163.633 1365.4 150.933 1371.7 142.733C1375.14 138.243 1376.14 136.753 1380.3 132.793C1386.54 127.423 1384.95 161.193 1384.29 166.263C1378.25 212.423 1369.91 237.093 1349.89 279.403C1333.94 313.083 1304.76 334.943 1275.37 355.133C1233.18 384.103 1181.93 397.103 1134 413.243C1104.21 423.283 1076.78 436.603 1056.06 461.053C1051.22 466.743 1046.95 472.893 1042.32 478.733C1034.96 488.023 1037.99 494.963 1047.01 500.753C1051.35 503.543 1055.62 506.413 1059.8 509.433C1089.26 530.703 1098.36 558.213 1088.36 593.003C1085.74 602.153 1083.65 611.343 1081.98 628.393C1075.53 621.333 1067.47 618.623 1060.31 614.163C1045.25 608.033 1026.77 606.293 1012.59 609.123C923.814 623.813 899.734 676.253 812.804 713.173C794.234 721.063 779.474 733.853 760.734 758.633C723.344 801.833 719.424 809.323 681.924 852.433C658.754 879.083 636.744 910.623 604.864 926.513C596.314 930.753 576.064 933.763 570.484 929.813C560.084 922.483 565.444 905.003 569.744 895.683C591.184 849.373 614.334 809.283 636.754 763.443C642.654 751.363 638.424 737.423 632.864 725.783C625.834 711.023 593.824 647.193 586.884 629.043C581.984 616.273 576.964 611.203 564.974 604.173C555.684 598.713 539.404 590.203 529.974 585.023C484.564 560.033 363.184 490.583 339.154 485.853C330.884 484.223 318.754 480.243 309.064 472.033C295.584 460.623 295.474 455.753 278.494 449.253C263.654 443.593 165.664 392.053 140.174 366.123C129.384 355.163 108.074 342.773 92.2738 328.393C81.7638 318.823 68.9038 306.533 57.5138 297.923C34.6838 280.663 31.1938 269.723 20.5638 242.463C18.7438 237.793 15.0738 225.043 14.7938 219.163C14.0038 209.853 26.7538 231.273 42.3038 233.873Z" fill="#FFE787"/>
<path d="M79.3038 112.223C70.9838 68.1828 68.5938 45.1428 84.9038 1.16277C88.4038 -9.07723 94.6938 50.6428 126.914 88.9728C131.754 93.8128 125.384 31.4128 129.584 5.68277C132.284 -11.2572 138.154 40.3428 180.784 76.4828C199.124 64.5128 201.034 54.2528 202.264 18.8728C202.904 7.28277 219.114 55.4728 242.044 72.0228C245.614 74.4428 271.594 30.1228 289.424 18.6628C294.514 14.8428 292.534 33.7128 293.114 42.7328C296.174 90.3628 316.224 127.443 354.114 154.813C395.524 184.703 449.994 197.263 496.274 217.743C515.114 226.083 629.354 273.073 697.304 355.103C725.394 389.023 751.034 426.353 778.754 461.723C796.674 484.583 829.334 510.443 890.964 517.763C919.314 521.133 917.244 523.103 940.164 502.823C955.004 490.733 976.614 474.193 993.474 466.543C1030.12 447.703 1062.18 432.733 1102.69 422.483C1193.38 399.553 1244.07 354.903 1306.38 285.263C1315.52 275.053 1322.83 254.513 1324.77 249.133C1328.64 240.313 1326.67 266.363 1339.17 258.373C1349.28 251.923 1357.34 234.073 1358.63 239.553C1360.05 244.123 1360.35 247.013 1361.99 252.403C1363.04 258.273 1381.86 237.733 1383.8 239.233C1387.02 241.383 1374.87 261.703 1381.75 268.803C1386.91 273.643 1396.48 262.443 1404.12 255.473C1408.3 251.663 1409.54 250.363 1414.33 247.193C1421.42 243.003 1413.93 275.973 1412.39 280.843C1398.35 325.223 1385.82 348.053 1358.7 386.193C1337.09 416.563 1304.54 432.963 1272.07 447.693C1225.46 468.823 1172.71 472.643 1122.7 480.133C1091.61 484.793 1062.28 493.113 1037.59 513.533C1031.83 518.293 1026.54 523.603 1020.97 528.543C1012.09 536.393 1013.85 543.763 1021.74 551.043C1025.51 554.543 1029.22 558.113 1032.79 561.833C1058.08 587.923 1062.21 616.613 1046.27 649.073C1042.1 657.613 1038.43 666.303 1033.8 682.793C1028.69 674.713 1021.22 670.633 1014.94 664.983C1001.19 656.303 983.304 651.373 968.854 651.653C878.864 650.563 845.964 697.973 753.934 719.083C734.254 723.593 717.494 733.593 694.694 754.713C650.314 790.703 645.134 797.383 600.664 833.253C573.174 855.433 545.994 882.623 511.814 892.673C502.664 895.353 482.184 894.773 477.384 889.893C468.434 880.863 476.764 864.603 482.654 856.173C511.864 814.323 541.684 778.933 571.794 737.733C579.724 726.873 577.994 712.413 574.574 699.973C570.234 684.203 549.914 615.773 546.254 596.683C543.664 583.243 539.604 577.383 529.044 568.363C520.864 561.363 506.314 550.113 497.944 543.373C457.614 510.803 350.284 421.183 327.464 412.313C319.604 409.253 308.354 403.213 300.254 393.433C288.984 379.843 289.724 375.043 274.154 365.663C260.534 357.483 173.084 289.583 152.534 259.593C143.844 246.913 125.024 230.983 111.994 214.053C103.314 202.793 92.8138 188.423 83.1138 177.953C63.6638 156.953 62.1338 145.573 56.4538 116.863C55.4738 111.943 54.0938 98.7428 54.8538 92.9128C55.6538 83.6128 64.4538 106.943 79.3038 112.223Z" fill="#FFDD12"/>
<path d="M247.834 178.533C248.824 176.303 249.764 174.053 250.664 171.793C251.564 169.523 252.434 167.253 253.274 164.963C254.114 162.673 254.924 160.373 255.704 158.063L250.614 156.043C245.654 154.083 241.244 152.393 237.354 150.993C233.464 149.583 229.624 148.273 225.824 147.043C226.354 146.073 226.844 144.993 227.314 143.803C227.794 142.613 228.324 141.263 228.914 139.783C229.504 138.293 230.034 136.953 230.514 135.763C230.984 134.573 231.364 133.443 231.644 132.383C235.254 134.083 238.954 135.763 242.744 137.413C246.544 139.053 250.914 140.863 255.864 142.823L268.034 147.653C272.984 149.613 277.394 151.303 281.284 152.703C285.184 154.103 289.104 155.463 293.084 156.763C292.564 157.733 292.014 158.793 291.454 159.953C290.894 161.103 290.314 162.433 289.724 163.923C289.134 165.413 288.644 166.773 288.264 168.003C287.884 169.233 287.544 170.373 287.264 171.433C283.504 169.593 279.754 167.883 276.004 166.293C272.254 164.703 267.904 162.923 262.954 160.963C262.274 162.493 261.494 164.333 260.594 166.493C259.704 168.653 258.614 171.353 257.344 174.563C256.064 177.783 255.044 180.413 254.264 182.453C253.494 184.493 252.794 186.393 252.164 188.143C257.114 190.103 261.504 191.773 265.334 193.163C269.164 194.543 273.064 195.883 277.034 197.183C276.504 198.153 275.974 199.213 275.414 200.363C274.844 201.523 274.274 202.843 273.674 204.333C273.094 205.823 272.594 207.183 272.214 208.413C271.824 209.643 271.494 210.783 271.214 211.843C267.434 210.063 263.644 208.363 259.844 206.713C256.044 205.073 251.674 203.263 246.724 201.303L234.564 196.473C229.614 194.513 225.194 192.833 221.304 191.423C217.414 190.013 213.574 188.703 209.774 187.473C210.294 186.503 210.794 185.423 211.264 184.233C211.744 183.043 212.274 181.703 212.864 180.213C213.454 178.723 213.984 177.383 214.464 176.193C214.934 174.993 215.314 173.873 215.594 172.813C219.204 174.513 222.904 176.193 226.694 177.843C230.494 179.483 234.864 181.293 239.814 183.253L244.914 185.273C245.874 182.993 246.854 180.763 247.834 178.533Z" fill="#006AB0"/>
<path d="M190.714 261.302C191.204 259.842 191.604 258.432 191.934 257.092C192.254 255.752 192.574 254.432 192.894 253.122C193.214 251.812 193.524 250.492 193.854 249.142C194.184 247.802 194.444 246.462 194.634 245.122C197.934 244.862 201.294 244.592 204.734 244.302C208.174 244.012 211.624 243.662 215.084 243.252C215.634 241.272 216.164 239.292 216.674 237.302C217.194 235.312 217.694 233.322 218.174 231.332C218.564 229.712 218.944 228.082 219.314 226.452C219.674 224.822 220.014 223.192 220.354 221.562C217.474 219.542 214.574 217.622 211.654 215.792C208.734 213.962 205.844 212.242 203.004 210.622C203.314 209.912 203.554 209.182 203.724 208.472C203.894 207.752 204.084 207.022 204.254 206.272C204.434 205.522 204.614 204.772 204.804 204.032C204.984 203.282 205.124 202.452 205.204 201.552C206.644 202.692 208.644 204.232 211.204 206.172C213.764 208.112 216.674 210.272 219.934 212.642C223.184 215.012 226.674 217.562 230.404 220.282C234.134 223.002 237.914 225.732 241.734 228.472C245.554 231.212 249.324 233.912 253.034 236.562C256.744 239.212 260.214 241.652 263.434 243.892C263.154 244.482 262.904 245.042 262.684 245.582C262.454 246.122 262.264 246.702 262.114 247.332C261.964 247.952 261.864 248.562 261.824 249.142C261.774 249.722 261.744 250.342 261.724 251.002C255.944 251.712 249.754 252.472 243.154 253.282C236.564 254.092 230.064 254.942 223.674 255.832C217.284 256.722 211.214 257.622 205.444 258.542C199.684 259.452 194.764 260.372 190.714 261.302ZM245.394 239.522C242.044 236.992 238.724 234.572 235.424 232.252C232.124 229.932 228.734 227.632 225.274 225.332L221.124 242.442C225.254 241.992 229.304 241.542 233.284 241.082C237.254 240.632 241.294 240.102 245.394 239.522Z" fill="#006AB0"/>
<path d="M245.984 283.172C248.994 283.332 251.654 283.502 253.954 283.662C253.464 285.422 253.164 286.842 253.054 287.922C252.954 289.012 252.964 290.462 253.114 292.282C244.714 298.482 236.444 304.612 228.314 310.682C220.184 316.742 211.904 322.972 203.484 329.372L211.814 330.182L221.094 331.092C224.224 331.402 227.304 331.682 230.344 331.952C233.374 332.212 236.164 332.462 238.734 332.672C241.284 332.892 243.494 333.042 245.354 333.122C247.214 333.202 248.474 333.212 249.124 333.152C248.634 334.912 248.334 336.332 248.224 337.422C248.124 338.502 248.134 339.962 248.284 341.772C242.514 340.882 237.284 340.122 232.614 339.462C227.934 338.812 223.534 338.222 219.404 337.692C215.264 337.152 211.174 336.672 207.124 336.242C203.074 335.812 198.754 335.372 194.164 334.932L182.674 333.802C182.934 332.542 183.124 331.242 183.254 329.892C183.384 328.492 183.454 327.242 183.424 326.142C200.024 314.492 216.804 302.052 233.764 288.822C231.914 288.582 230.074 288.352 228.224 288.132C226.374 287.922 224.484 287.712 222.574 287.532L211.464 286.442C207.634 286.072 204.384 285.762 201.694 285.532C199.004 285.302 196.734 285.132 194.874 285.012C193.024 284.892 191.494 284.812 190.314 284.752C189.124 284.702 188.184 284.672 187.464 284.672C187.674 283.912 187.814 283.162 187.884 282.392C187.964 281.632 188.034 280.892 188.104 280.192C188.244 278.722 188.334 277.252 188.344 275.772C188.834 275.952 190.644 276.282 193.754 276.782C196.864 277.282 200.654 277.862 205.134 278.522C209.614 279.182 214.474 279.852 219.724 280.532C224.974 281.202 230.014 281.782 234.874 282.252C239.264 282.712 242.974 283.002 245.984 283.172Z" fill="#006AB0"/>
<path d="M235.634 354.613C239.754 354.263 243.894 353.853 248.044 353.383C247.974 354.473 247.924 355.673 247.894 356.953C247.864 358.243 247.894 359.683 247.984 361.283C248.094 363.393 248.304 365.763 248.604 368.383C248.904 371.003 249.164 374.423 249.394 378.643C249.684 384.153 249.454 389.193 248.704 393.763C247.954 398.333 246.474 402.303 244.284 405.703C242.084 409.093 239.034 411.793 235.134 413.803C231.224 415.803 226.224 416.973 220.144 417.293C214.834 417.583 209.974 416.953 205.594 415.413C201.214 413.873 197.424 411.673 194.214 408.793C191.014 405.913 188.504 402.513 186.694 398.593C184.874 394.673 183.844 390.443 183.614 385.893C183.364 381.093 183.174 376.993 183.054 373.593C182.944 370.193 182.814 367.243 182.684 364.753C182.604 363.153 182.524 361.713 182.454 360.433C182.394 359.153 182.254 357.973 182.074 356.893C186.054 356.933 190.114 356.913 194.254 356.823C198.394 356.733 203.114 356.543 208.434 356.263L221.494 355.573C226.784 355.283 231.504 354.963 235.634 354.613ZM202.154 370.843L196.384 371.143C194.524 371.243 192.824 371.343 191.294 371.463C189.754 371.573 188.764 371.643 188.314 371.663C188.294 372.623 188.294 373.783 188.304 375.133C188.304 376.483 188.374 378.153 188.474 380.133C188.854 387.363 191.624 392.973 196.774 396.933C201.924 400.893 209.504 402.623 219.494 402.093C223.464 401.883 226.994 401.163 230.074 399.943C233.154 398.723 235.744 397.083 237.854 395.053C239.974 393.013 241.534 390.623 242.584 387.873C243.624 385.123 244.054 382.073 243.884 378.743C243.764 376.433 243.614 374.563 243.444 373.133C243.274 371.693 243.084 370.253 242.874 368.773C242.424 368.803 241.434 368.833 239.894 368.883C238.354 368.933 236.624 369.013 234.704 369.113L228.944 369.413L224.144 369.673L207.044 370.583L202.154 370.843Z" fill="#006AB0"/>
<path d="M241.054 427.623C245.094 426.713 249.134 425.733 253.184 424.673C253.254 425.763 253.364 426.953 253.514 428.233C253.654 429.513 253.874 430.943 254.174 432.513C254.684 435.223 255.294 438.043 256.014 440.973C256.724 443.913 257.344 446.723 257.854 449.433C258.394 452.273 258.604 454.903 258.474 457.343C258.344 459.783 257.854 461.963 257.014 463.883C256.164 465.813 254.904 467.393 253.214 468.663C251.524 469.923 249.394 470.803 246.804 471.283C244.214 471.773 241.894 471.653 239.834 470.923C237.774 470.203 235.974 469.173 234.454 467.863C232.934 466.543 231.654 465.043 230.624 463.373C229.594 461.703 228.814 460.163 228.284 458.753L228.094 458.793C228.304 460.253 228.294 462.013 228.064 464.073C227.834 466.133 227.244 468.163 226.324 470.163C225.394 472.163 224.054 473.963 222.294 475.563C220.544 477.163 218.244 478.233 215.414 478.773C212.004 479.413 208.984 479.343 206.364 478.573C203.744 477.793 201.474 476.533 199.574 474.773C197.674 473.013 196.184 470.873 195.084 468.343C193.984 465.813 193.174 463.133 192.634 460.303C192.154 457.783 191.744 455.433 191.404 453.263C191.054 451.083 190.664 448.793 190.214 446.403C189.884 444.703 189.564 442.963 189.224 441.163C188.894 439.373 188.554 437.953 188.224 436.903C192.194 436.453 196.214 435.913 200.304 435.283C204.394 434.663 209.054 433.853 214.294 432.863L227.154 430.443C232.374 429.473 237.014 428.523 241.054 427.623ZM221.264 459.223C223.064 456.833 223.604 453.743 222.904 449.963C222.734 449.083 222.574 448.323 222.424 447.703C222.274 447.073 222.144 446.483 222.034 445.913C220.704 446.163 219.344 446.403 217.914 446.643C216.494 446.873 214.804 447.183 212.854 447.543C211.334 447.833 209.794 448.133 208.234 448.463C206.654 448.793 205.124 449.093 203.614 449.383C202.104 449.673 200.714 449.943 199.464 450.213C198.214 450.483 197.174 450.693 196.354 450.853C196.454 451.743 196.564 452.573 196.674 453.333C196.784 454.093 196.944 455.013 197.144 456.083C197.404 457.473 197.934 458.743 198.744 459.893C199.554 461.043 200.594 461.993 201.874 462.733C203.154 463.473 204.634 463.973 206.324 464.243C208.004 464.513 209.894 464.453 211.964 464.063C216.364 463.233 219.464 461.623 221.264 459.223ZM246.564 456.313C247.844 455.713 248.914 454.903 249.734 453.903C250.554 452.903 251.144 451.703 251.504 450.333C251.864 448.963 251.874 447.333 251.514 445.433C251.254 444.043 251.054 443.083 250.924 442.553C250.784 442.023 250.594 441.453 250.354 440.853C247.994 441.163 245.614 441.513 243.204 441.903C240.794 442.293 238.774 442.643 237.134 442.953C235.424 443.273 233.804 443.593 232.274 443.913C230.734 444.233 229.144 444.553 227.514 444.863L228.314 449.123C228.554 450.443 229.064 451.703 229.814 452.903C230.564 454.103 231.514 455.113 232.684 455.933C233.854 456.753 235.254 457.343 236.884 457.683C238.514 458.023 240.334 458.013 242.364 457.633C243.874 457.363 245.274 456.913 246.564 456.313Z" fill="#006AB0"/>
<path d="M216.504 548.253C216.174 546.753 215.794 545.333 215.384 544.023C214.974 542.713 214.564 541.402 214.174 540.122C213.774 538.842 213.374 537.532 212.964 536.222C212.554 534.902 212.084 533.622 211.564 532.372C214.254 530.462 217.004 528.492 219.804 526.482C222.604 524.462 225.384 522.393 228.144 520.263C227.594 518.283 227.024 516.303 226.454 514.333C225.874 512.363 225.284 510.403 224.674 508.443C224.174 506.853 223.674 505.262 223.144 503.682C222.614 502.092 222.074 500.523 221.524 498.943C218.024 498.693 214.544 498.532 211.094 498.462C207.654 498.392 204.294 498.403 201.024 498.473C200.924 497.703 200.764 496.963 200.534 496.263C200.314 495.553 200.094 494.843 199.864 494.103C199.634 493.373 199.404 492.632 199.174 491.902C198.944 491.162 198.644 490.393 198.244 489.573C200.064 489.813 202.574 490.103 205.774 490.453C208.964 490.793 212.574 491.152 216.584 491.522C220.584 491.882 224.894 492.273 229.494 492.693C234.094 493.113 238.734 493.512 243.424 493.902C248.114 494.292 252.724 494.663 257.274 495.033C261.824 495.403 266.054 495.713 269.964 495.973C270.024 496.623 270.104 497.233 270.194 497.823C270.274 498.403 270.404 498.992 270.594 499.612C270.784 500.222 271.014 500.793 271.274 501.323C271.534 501.843 271.824 502.392 272.134 502.962C267.534 506.542 262.624 510.373 257.374 514.453C252.124 518.543 246.994 522.603 241.974 526.653C236.954 530.703 232.204 534.593 227.734 538.343C223.234 542.063 219.494 545.383 216.504 548.253ZM252.224 501.483C248.054 501.033 243.954 500.662 239.944 500.372C235.924 500.082 231.834 499.832 227.674 499.652L232.904 516.463C236.214 513.953 239.464 511.482 242.634 509.052C245.804 506.612 249.004 504.093 252.224 501.483Z" fill="#006AB0"/>
<path d="M271.364 539.713C275.104 537.933 278.824 536.083 282.544 534.173C282.864 535.223 283.234 536.353 283.674 537.573C284.094 538.783 284.634 540.133 285.274 541.593C285.914 543.053 286.544 544.363 287.144 545.493C287.744 546.633 288.324 547.673 288.884 548.613C284.964 550.053 281.084 551.543 277.244 553.093C273.404 554.633 269.044 556.473 264.174 558.613L252.184 563.863C248.844 565.333 245.614 566.763 242.514 568.163C239.414 569.553 236.724 570.783 234.464 571.843C235.924 575.193 237.484 578.503 239.124 581.773C240.764 585.043 242.544 588.293 244.444 591.523C243.744 591.683 243.124 591.853 242.564 592.033C242.014 592.203 241.264 592.493 240.324 592.913C239.384 593.323 238.664 593.673 238.164 593.963C237.664 594.253 237.254 594.533 236.954 594.803C236.314 593.183 235.504 591.223 234.514 588.883C233.534 586.553 232.154 583.363 230.374 579.303C228.804 575.723 227.524 572.813 226.554 570.583C225.594 568.413 224.834 566.663 224.254 565.343C223.674 564.023 223.224 563.033 222.904 562.363C222.574 561.703 222.284 561.153 222.024 560.703C225.764 559.343 229.554 557.883 233.404 556.343C237.244 554.803 241.604 552.963 246.474 550.823L258.454 545.573C263.314 543.453 267.624 541.493 271.364 539.713Z" fill="#006AB0"/>
<path d="M295.054 612.973C303.774 611.713 312.054 610.333 319.884 608.843C320.384 610.403 320.934 611.703 321.524 612.773C322.114 613.843 322.944 615.003 324.004 616.243C319.924 616.683 315.004 617.213 309.264 617.843C303.514 618.463 297.444 619.173 291.044 619.943C284.654 620.713 278.184 621.553 271.654 622.483C265.124 623.403 259.044 624.363 253.434 625.353C252.924 624.163 252.294 622.903 251.544 621.563C250.794 620.213 250.054 619.013 249.314 617.953C251.084 615.863 253.244 613.333 255.764 610.353C258.284 607.363 260.954 604.193 263.774 600.823C266.604 597.453 269.464 593.973 272.374 590.363C275.294 586.763 278.114 583.283 280.834 579.933C283.554 576.583 286.084 573.443 288.434 570.533C290.774 567.613 292.754 565.113 294.384 563.033C294.994 564.383 295.604 565.723 296.224 567.023C296.834 568.333 297.494 569.603 298.174 570.833C298.854 572.063 299.584 573.273 300.354 574.463C301.124 575.643 301.914 576.823 302.714 578.003C300.104 580.703 297.394 583.623 294.594 586.763C291.784 589.903 288.934 593.123 286.034 596.423C283.134 599.723 280.254 603.073 277.374 606.473C274.494 609.873 271.654 613.193 268.834 616.453C277.594 615.383 286.324 614.233 295.054 612.973Z" fill="#006AB0"/>
<path d="M317.734 628.073C321.024 625.573 324.314 623.023 327.574 620.423C329.194 622.803 330.774 625.183 332.314 627.553C333.854 629.923 335.464 632.273 337.144 634.623C339.904 638.483 342.394 641.883 344.614 644.833C346.834 647.783 348.374 649.733 349.224 650.703C348.244 651.093 347.074 651.773 345.714 652.743C344.874 653.333 344.244 653.823 343.814 654.213C343.384 654.603 342.914 655.053 342.414 655.563C341.434 653.973 340.354 652.243 339.174 650.373C337.994 648.503 336.844 646.673 335.734 644.903C334.634 643.133 333.614 641.553 332.704 640.163C331.784 638.773 331.124 637.783 330.704 637.213C327.684 639.053 324.764 640.963 321.924 642.953C319.084 644.943 316.234 646.963 313.364 649.013C315.834 652.363 318.114 655.383 320.174 658.043C322.234 660.703 324.404 663.473 326.694 666.333C325.694 666.813 324.944 667.193 324.434 667.483C323.924 667.763 323.414 668.093 322.884 668.463C322.474 668.763 322.064 669.113 321.684 669.503C321.284 669.893 320.714 670.443 319.964 671.143C316.184 664.853 312.184 658.773 307.974 652.873C306.304 654.063 304.624 655.243 302.934 656.413C301.244 657.583 299.564 658.763 297.894 659.953C294.504 662.383 291.294 664.783 288.284 667.183C290.414 670.153 292.614 673.073 294.894 675.933C297.184 678.803 299.584 681.613 302.114 684.373C301.464 684.673 300.884 684.973 300.374 685.253C299.874 685.543 299.194 685.973 298.364 686.573C297.534 687.163 296.894 687.653 296.464 688.043C296.024 688.433 295.694 688.793 295.454 689.113C294.504 687.663 293.304 685.903 291.854 683.823C290.404 681.743 288.394 678.903 285.824 675.303C283.544 672.123 281.704 669.533 280.284 667.553C278.904 665.623 277.794 664.073 276.954 662.893C276.114 661.713 275.464 660.843 275.014 660.263C274.554 659.683 274.154 659.203 273.804 658.823C277.174 656.693 280.564 654.463 284.004 652.153C287.434 649.843 291.314 647.133 295.644 644.043L306.284 636.433C310.614 633.363 314.434 630.573 317.734 628.073Z" fill="#006AB0"/>
<path d="M338.054 692.802L335.114 695.422C331.144 698.962 327.654 702.162 324.654 705.012C321.644 707.862 318.744 710.702 315.954 713.542C315.324 712.642 314.584 711.712 313.724 710.752C312.874 709.792 311.914 708.722 310.844 707.522C309.774 706.322 308.804 705.252 307.954 704.292C307.104 703.332 306.264 702.492 305.444 701.762C308.584 699.302 311.744 696.752 314.914 694.092C318.084 691.432 321.664 688.332 325.624 684.792L335.394 676.082C339.364 672.542 342.854 669.342 345.854 666.492C348.854 663.642 351.824 660.732 354.764 657.772C355.394 658.672 356.104 659.632 356.884 660.652C357.674 661.672 358.594 662.782 359.664 663.982C360.814 665.272 362.184 666.692 363.774 668.242C365.364 669.782 367.254 671.782 369.434 674.222C371.054 676.042 372.394 677.632 373.444 679.012C374.504 680.392 375.344 681.632 375.994 682.732C376.634 683.832 377.114 684.872 377.414 685.842C377.724 686.812 377.934 687.802 378.064 688.812C378.294 691.182 378.004 693.482 377.194 695.712C376.384 697.932 374.904 700.002 372.754 701.932C369.254 705.052 365.554 706.632 361.644 706.682C357.734 706.732 353.724 705.372 349.614 702.592C347.604 708.522 345.734 714.602 344.034 720.842C342.334 727.082 340.684 733.282 339.054 739.462C338.174 738.272 337.254 737.152 336.314 736.102C335.374 735.052 334.414 733.972 333.434 732.872C332.454 731.772 331.484 730.682 330.514 729.602C329.554 728.522 328.534 727.482 327.464 726.462L338.614 693.442L338.054 692.802ZM365.824 687.232C366.684 685.692 367.044 684.182 366.904 682.732C366.754 681.262 366.154 679.752 365.094 678.172C364.024 676.592 362.614 674.812 360.864 672.852C354.224 678.512 347.654 684.242 341.144 690.052C341.354 690.382 341.554 690.692 341.764 690.972C341.974 691.252 342.184 691.512 342.394 691.762C345.214 694.922 348.224 696.582 351.404 696.742C354.604 696.902 357.924 695.442 361.374 692.372C363.484 690.482 364.974 688.772 365.824 687.232Z" fill="#006AB0"/>
<path d="M384.164 707.933C386.854 704.793 389.514 701.603 392.134 698.353C394.234 700.333 396.284 702.313 398.304 704.303C400.304 706.293 402.384 708.253 404.524 710.183C408.044 713.363 411.214 716.153 414.004 718.563C416.804 720.963 418.724 722.543 419.764 723.313C418.884 723.903 417.884 724.813 416.764 726.053C416.074 726.813 415.564 727.433 415.224 727.903C414.884 728.373 414.524 728.913 414.144 729.523C412.854 728.183 411.424 726.723 409.864 725.143C408.314 723.563 406.804 722.033 405.344 720.543C403.884 719.053 402.554 717.723 401.354 716.553C400.164 715.383 399.304 714.573 398.774 714.093C396.224 716.543 393.774 719.043 391.434 721.583C389.094 724.133 386.734 726.713 384.364 729.333C387.504 732.083 390.364 734.533 392.944 736.693C395.534 738.853 398.244 741.093 401.084 743.393C400.214 744.083 399.554 744.603 399.124 744.993C398.694 745.383 398.254 745.813 397.824 746.283C397.484 746.663 397.164 747.093 396.874 747.563C396.574 748.033 396.134 748.683 395.544 749.533C390.504 744.203 385.294 739.113 379.914 734.253C378.534 735.783 377.154 737.293 375.744 738.793C374.354 740.293 372.954 741.813 371.584 743.333C368.784 746.423 366.164 749.463 363.734 752.453C366.444 754.903 369.224 757.283 372.064 759.593C374.904 761.893 377.854 764.133 380.914 766.293C380.354 766.733 379.844 767.143 379.414 767.533C378.974 767.913 378.414 768.493 377.724 769.253C377.034 770.013 376.524 770.633 376.184 771.103C375.844 771.573 375.594 771.993 375.434 772.373C374.194 771.163 372.644 769.703 370.784 767.973C368.924 766.253 366.354 763.913 363.064 760.943C360.164 758.323 357.814 756.193 356.004 754.563C354.244 752.973 352.824 751.693 351.754 750.723C350.684 749.763 349.864 749.043 349.294 748.573C348.724 748.103 348.224 747.713 347.804 747.423C350.634 744.623 353.474 741.723 356.334 738.723C359.194 735.733 362.404 732.263 365.974 728.313L374.744 718.603C378.354 714.623 381.484 711.073 384.164 707.933Z" fill="#006AB0"/>
<path d="M422.824 736.563C424.454 734.023 425.894 731.783 427.164 729.853C428.454 731.153 429.544 732.103 430.444 732.733C431.334 733.353 432.604 734.053 434.264 734.823C435.534 745.193 436.824 755.403 438.114 765.473C439.404 775.533 440.764 785.803 442.194 796.283L446.994 789.423L452.344 781.783C454.144 779.213 455.904 776.663 457.624 774.153C459.344 771.643 460.924 769.323 462.374 767.203C463.814 765.083 465.034 763.243 466.024 761.663C467.014 760.083 467.634 758.993 467.904 758.393C469.184 759.683 470.274 760.643 471.174 761.273C472.064 761.893 473.344 762.593 474.994 763.363C471.384 767.953 468.144 772.133 465.284 775.883C462.424 779.633 459.744 783.183 457.244 786.523C454.744 789.863 452.314 793.183 449.954 796.513C447.584 799.823 445.084 803.373 442.434 807.163L435.814 816.623C434.834 815.783 433.794 814.973 432.694 814.203C431.534 813.393 430.474 812.733 429.514 812.203C427.524 792.023 424.924 771.293 421.734 750.033C420.614 751.513 419.504 753.013 418.414 754.513C417.324 756.023 416.224 757.563 415.114 759.133L408.714 768.273C406.504 771.423 404.644 774.113 403.124 776.333C401.604 778.563 400.334 780.453 399.324 782.013C398.304 783.573 397.484 784.853 396.854 785.863C396.224 786.873 395.734 787.683 395.384 788.293C394.834 787.753 394.234 787.253 393.614 786.813C392.984 786.373 392.374 785.943 391.804 785.543C390.594 784.693 389.344 783.903 388.064 783.163C388.464 782.813 389.634 781.413 391.604 778.943C393.564 776.483 395.934 773.463 398.714 769.883C401.494 766.313 404.464 762.403 407.634 758.163C410.804 753.923 413.784 749.803 416.584 745.813C419.124 742.183 421.204 739.103 422.824 736.563Z" fill="#006AB0"/>
<path d="M480.874 780.423C482.704 776.713 484.484 772.953 486.204 769.143C487.114 769.773 488.104 770.423 489.194 771.113C490.284 771.803 491.534 772.523 492.954 773.273C494.374 774.023 495.664 774.663 496.844 775.173C498.024 775.693 499.114 776.153 500.144 776.553C497.954 780.113 495.844 783.693 493.794 787.283C491.734 790.873 489.454 795.023 486.964 799.723L480.834 811.273C478.334 815.973 476.174 820.183 474.344 823.893C472.514 827.603 470.784 831.273 469.144 834.913C468.244 834.293 467.224 833.673 466.094 833.073C464.954 832.463 463.684 831.793 462.264 831.043C460.854 830.293 459.574 829.613 458.444 829.013C457.314 828.413 456.234 827.903 455.214 827.513C457.304 824.123 459.374 820.623 461.434 817.033C463.484 813.443 465.764 809.293 468.264 804.593L474.404 793.043C476.884 788.343 479.044 784.133 480.874 780.423Z" fill="#006AB0"/>
<path d="M553.234 809.143C551.084 806.323 547.964 804.053 543.894 802.333C541.174 801.183 538.224 800.623 535.054 800.643C531.874 800.653 528.754 801.373 525.684 802.793C522.614 804.213 519.694 806.373 516.934 809.283C514.174 812.193 511.814 815.983 509.844 820.643C508.344 824.193 507.444 827.673 507.154 831.103C506.864 834.533 507.154 837.733 508.054 840.723C508.954 843.713 510.464 846.383 512.604 848.753C514.744 851.123 517.524 853.023 520.944 854.463C521.714 854.793 522.604 855.113 523.614 855.433C524.624 855.763 525.614 856.053 526.584 856.313C527.554 856.583 528.454 856.773 529.314 856.893C530.174 857.013 530.824 857.023 531.274 856.933C531.694 856.273 532.144 855.423 532.614 854.373C533.094 853.323 533.604 852.153 534.154 850.843C536.184 846.053 537.574 842.493 538.354 840.143C539.144 837.793 539.674 836.193 539.964 835.343C540.504 835.713 541.244 836.143 542.174 836.643C543.114 837.143 544.494 837.783 546.334 838.553C548.464 839.453 550.064 840.073 551.134 840.423C552.204 840.773 553.054 841.013 553.694 841.143C553.374 841.573 552.954 842.293 552.414 843.313C551.884 844.343 551.284 845.533 550.644 846.893C550.004 848.263 549.334 849.713 548.644 851.273C547.954 852.823 547.304 854.313 546.714 855.733L545.474 858.653C544.854 860.133 544.284 861.513 543.774 862.793C543.274 864.083 542.964 865.013 542.854 865.593C538.484 865.073 534.164 864.293 529.904 863.263C525.644 862.233 521.554 860.893 517.664 859.243C512.584 857.103 508.184 854.463 504.454 851.323C500.734 848.183 497.864 844.673 495.844 840.793C493.824 836.913 492.714 832.793 492.504 828.413C492.294 824.043 493.154 819.583 495.074 815.033C497.434 809.423 500.454 804.893 504.094 801.463C507.744 798.023 511.794 795.583 516.254 794.163C520.714 792.743 525.494 792.273 530.584 792.753C535.674 793.233 540.814 794.563 546.024 796.763C550.514 798.653 554.204 800.753 557.094 803.053C559.984 805.353 562.674 808.033 565.134 811.093C564.014 812.433 562.914 813.743 561.854 815.033C560.784 816.323 559.784 817.673 558.834 819.083L557.594 818.553C556.844 815.103 555.394 811.963 553.234 809.143Z" fill="#006AB0"/>
<path d="M576.304 822.233C577.364 818.233 578.384 814.203 579.334 810.133C580.344 810.573 581.444 811.023 582.644 811.483C583.844 811.943 585.214 812.403 586.754 812.863C588.284 813.323 589.674 813.693 590.934 813.973C592.194 814.253 593.364 814.483 594.444 814.673C592.994 818.593 591.624 822.513 590.304 826.433C588.984 830.363 587.564 834.873 586.034 839.963L582.264 852.493C580.734 857.593 579.424 862.143 578.364 866.133C577.294 870.133 576.304 874.073 575.414 877.953C574.404 877.513 573.284 877.113 572.064 876.743C570.834 876.373 569.454 875.953 567.924 875.503C566.384 875.043 565.004 874.623 563.774 874.253C562.544 873.883 561.394 873.603 560.314 873.413C561.704 869.683 563.054 865.853 564.364 861.923C565.684 858.003 567.104 853.493 568.634 848.393L572.404 835.863C573.924 830.783 575.234 826.233 576.304 822.233Z" fill="#006AB0"/>
<path d="M606.914 827.043C607.334 824.063 607.734 821.423 608.094 819.143C609.804 819.793 611.194 820.213 612.264 820.413C613.334 820.613 614.784 820.723 616.614 820.733C622.064 829.643 627.454 838.413 632.794 847.033C638.134 855.663 643.624 864.453 649.264 873.393L650.794 865.163L652.504 855.993C653.074 852.903 653.634 849.863 654.154 846.853C654.674 843.853 655.164 841.093 655.604 838.563C656.034 836.033 656.384 833.843 656.624 832.003C656.874 830.163 656.984 828.903 656.984 828.253C658.694 828.903 660.084 829.323 661.154 829.523C662.224 829.723 663.664 829.833 665.494 829.843C664.104 835.523 662.894 840.663 661.834 845.253C660.784 849.853 659.804 854.193 658.924 858.263C658.034 862.333 657.204 866.373 656.424 870.373C655.644 874.373 654.844 878.643 653.994 883.183L651.884 894.533C650.644 894.173 649.364 893.873 648.044 893.623C646.654 893.363 645.414 893.193 644.314 893.123C634.154 875.573 623.214 857.783 611.504 839.743C611.094 841.563 610.714 843.373 610.344 845.203C609.964 847.023 609.604 848.883 609.254 850.783L607.214 861.753C606.504 865.533 605.924 868.753 605.464 871.413C605.004 874.063 604.634 876.313 604.354 878.153C604.074 879.993 603.854 881.503 603.704 882.683C603.544 883.863 603.434 884.803 603.374 885.503C602.644 885.233 601.894 885.033 601.134 884.893C600.374 884.753 599.654 884.613 598.964 884.493C597.514 884.223 596.044 884.013 594.574 883.873C594.794 883.393 595.294 881.623 596.054 878.573C596.814 875.523 597.724 871.793 598.774 867.383C599.824 862.983 600.914 858.193 602.044 853.023C603.164 847.853 604.184 842.873 605.074 838.073C605.864 833.693 606.484 830.033 606.914 827.043Z" fill="#006AB0"/>
<path d="M724.654 840.022C721.634 838.152 717.914 837.142 713.484 836.992C710.534 836.892 707.584 837.422 704.634 838.572C701.674 839.722 699.014 841.512 696.654 843.932C694.294 846.352 692.344 849.412 690.814 853.122C689.274 856.832 688.424 861.212 688.264 866.272C688.134 870.122 688.544 873.692 689.494 877.002C690.444 880.302 691.874 883.192 693.774 885.662C695.684 888.132 698.054 890.092 700.894 891.532C703.734 892.972 707.014 893.762 710.734 893.882C711.564 893.912 712.514 893.892 713.574 893.832C714.634 893.772 715.664 893.692 716.664 893.602C717.664 893.512 718.584 893.362 719.414 893.162C720.254 892.962 720.874 892.742 721.264 892.502C721.414 891.742 721.524 890.782 721.604 889.622C721.674 888.472 721.724 887.182 721.774 885.772C721.944 880.582 721.984 876.752 721.874 874.272C721.764 871.802 721.694 870.112 721.654 869.212C722.294 869.362 723.144 869.502 724.194 869.632C725.244 869.762 726.764 869.862 728.754 869.922C731.064 870.002 732.784 870.012 733.904 869.952C735.034 869.892 735.914 869.812 736.564 869.702C736.414 870.212 736.274 871.042 736.144 872.192C736.004 873.342 735.884 874.672 735.764 876.172C735.654 877.682 735.554 879.282 735.464 880.972C735.374 882.672 735.304 884.282 735.254 885.832L735.144 889.002C735.094 890.602 735.054 892.092 735.044 893.472C735.024 894.852 735.074 895.832 735.184 896.412C730.914 897.492 726.604 898.312 722.254 898.872C717.904 899.432 713.614 899.642 709.384 899.502C703.874 899.312 698.824 898.422 694.224 896.822C689.624 895.222 685.684 892.982 682.414 890.072C679.144 887.172 676.624 883.712 674.874 879.712C673.114 875.712 672.324 871.232 672.484 866.302C672.684 860.212 673.874 854.912 676.044 850.392C678.214 845.872 681.134 842.162 684.794 839.232C688.454 836.312 692.744 834.162 697.664 832.782C702.594 831.402 707.864 830.812 713.514 831.002C718.384 831.162 722.584 831.802 726.104 832.912C729.624 834.022 733.084 835.562 736.484 837.542C735.914 839.192 735.364 840.812 734.824 842.392C734.294 843.982 733.844 845.602 733.454 847.262L732.114 847.222C730.154 844.292 727.674 841.882 724.654 840.022Z" fill="#006AB0"/>
<path d="M834.664 887.492C833.124 887.602 831.674 887.762 830.304 887.962C828.934 888.172 827.594 888.382 826.264 888.582C824.924 888.782 823.584 888.992 822.224 889.202C820.864 889.412 819.524 889.682 818.214 890.012C816.724 887.062 815.194 884.052 813.624 880.982C812.044 877.912 810.414 874.862 808.714 871.802C806.674 872.052 804.644 872.312 802.604 872.592C800.574 872.872 798.544 873.162 796.514 873.472C794.864 873.732 793.224 874.002 791.574 874.282C789.934 874.562 788.294 874.862 786.654 875.182C785.874 878.612 785.204 882.022 784.624 885.422C784.044 888.822 783.544 892.142 783.134 895.382C782.354 895.372 781.594 895.422 780.874 895.532C780.144 895.642 779.394 895.762 778.644 895.872C777.874 895.992 777.124 896.102 776.354 896.222C775.604 896.342 774.784 896.522 773.914 896.792C774.424 895.022 775.084 892.582 775.904 889.482C776.724 886.372 777.614 882.862 778.574 878.952C779.534 875.042 780.554 870.852 781.654 866.362C782.744 861.882 783.834 857.352 784.914 852.772C785.994 848.192 787.054 843.682 788.094 839.242C789.134 834.802 790.074 830.672 790.914 826.842C791.574 826.872 792.194 826.892 792.774 826.892C793.364 826.902 793.974 826.862 794.604 826.762C795.234 826.662 795.824 826.532 796.384 826.342C796.944 826.162 797.524 825.952 798.134 825.732C800.994 830.812 804.044 836.242 807.304 842.032C810.564 847.832 813.824 853.502 817.074 859.082C820.324 864.652 823.474 869.922 826.504 874.912C829.544 879.902 832.264 884.092 834.664 887.492ZM793.724 845.202C792.654 849.262 791.684 853.252 790.794 857.182C789.904 861.112 789.064 865.122 788.264 869.202L805.664 866.542C803.674 862.892 801.714 859.312 799.784 855.812C797.854 852.302 795.834 848.772 793.724 845.202Z" fill="#006AB0"/>
<path d="M834.554 831.913C833.354 827.953 832.084 824.003 830.754 820.043C831.834 819.883 833.014 819.683 834.274 819.433C835.544 819.193 836.944 818.863 838.494 818.443C840.034 818.023 841.414 817.593 842.634 817.173C843.844 816.743 844.954 816.323 845.984 815.923C846.824 820.013 847.724 824.073 848.674 828.093C849.624 832.123 850.804 836.703 852.194 841.843L855.614 854.463C856.564 857.993 857.494 861.393 858.424 864.673C859.344 867.953 860.154 870.783 860.874 873.183C864.404 872.223 867.904 871.173 871.384 870.033C874.864 868.893 878.344 867.623 881.814 866.223C881.874 866.933 881.944 867.583 882.044 868.153C882.134 868.723 882.314 869.513 882.574 870.503C882.844 871.493 883.084 872.263 883.294 872.793C883.504 873.333 883.724 873.773 883.954 874.113C882.264 874.503 880.194 875.013 877.734 875.643C875.284 876.273 871.924 877.163 867.654 878.323C863.874 879.343 860.814 880.173 858.464 880.813C856.174 881.433 854.334 881.933 852.944 882.303C851.544 882.673 850.494 882.983 849.794 883.203C849.084 883.423 848.494 883.633 848.024 883.823C847.234 879.923 846.354 875.953 845.404 871.923C844.444 867.893 843.274 863.313 841.884 858.173L838.474 845.543C837.054 840.433 835.764 835.873 834.554 831.913Z" fill="#006AB0"/>
<path d="M897.104 847.423C899.404 854.243 901.714 861.063 904.024 867.883C903.274 868.063 902.534 868.303 901.824 868.603C901.104 868.903 900.434 869.183 899.784 869.463C899.074 869.753 898.374 870.053 897.704 870.333C897.014 870.623 896.354 870.973 895.694 871.383C893.314 860.423 890.764 849.593 888.024 838.923C885.284 828.253 882.364 817.473 879.264 806.603C879.964 806.453 880.614 806.293 881.214 806.143C881.804 806.003 882.434 805.783 883.084 805.513C883.614 805.293 884.154 805.013 884.714 804.673C885.264 804.333 885.844 803.973 886.444 803.583C889.524 806.463 892.714 809.363 895.994 812.303C899.274 815.243 902.544 818.153 905.824 821.063C909.094 823.973 912.334 826.803 915.544 829.553C918.754 832.313 921.814 834.923 924.724 837.383C925.494 829.273 926.114 820.853 926.594 812.133C927.074 803.413 927.414 794.813 927.604 786.313C929.204 785.993 930.534 785.603 931.604 785.153C932.614 784.733 933.794 784.063 935.144 783.153C937.864 787.993 940.794 793.193 943.934 798.763C947.074 804.343 950.134 809.783 953.134 815.093C956.134 820.413 958.964 825.363 961.654 829.943C964.334 834.513 966.574 838.173 968.344 840.903C967.104 841.283 965.884 841.723 964.674 842.233C963.464 842.743 962.264 843.243 961.084 843.733C959.904 844.233 958.684 844.743 957.444 845.263C956.204 845.783 954.994 846.363 953.794 847.003C950.944 841.043 947.684 834.643 944.034 827.833C940.374 821.023 936.724 814.273 933.084 807.593L932.914 807.663C932.464 816.063 932.034 824.313 931.614 832.413C931.184 840.523 930.804 848.643 930.464 856.783C930.144 856.853 929.844 856.923 929.564 857.003C929.284 857.083 929.004 857.183 928.704 857.313C928.404 857.443 928.134 857.573 927.884 857.713C927.634 857.853 927.364 858.013 927.094 858.203C921.124 852.923 915.154 847.633 909.214 842.333C903.274 837.033 897.184 831.693 890.964 826.303L890.784 826.373C892.694 833.593 894.804 840.603 897.104 847.423Z" fill="#006AB0"/>
<path d="M954.984 786.072C952.794 782.562 950.554 779.062 948.244 775.582C950.764 774.182 953.274 772.822 955.774 771.502C958.274 770.192 960.764 768.802 963.254 767.342C967.344 764.942 970.964 762.762 974.094 760.812C977.224 758.862 979.314 757.512 980.354 756.752C980.654 757.772 981.224 758.992 982.064 760.432C982.584 761.312 983.014 761.992 983.364 762.462C983.714 762.932 984.114 763.432 984.584 763.972C982.914 764.802 981.094 765.722 979.114 766.732C977.144 767.742 975.224 768.722 973.364 769.662C971.494 770.612 969.834 771.472 968.364 772.262C966.894 773.052 965.854 773.622 965.244 773.982C966.804 777.162 968.444 780.242 970.174 783.242C971.894 786.252 973.654 789.272 975.434 792.312C978.994 790.152 982.204 788.162 985.044 786.342C987.884 784.532 990.834 782.612 993.894 780.602C994.284 781.642 994.584 782.422 994.824 782.952C995.064 783.482 995.354 784.022 995.674 784.582C995.934 785.022 996.234 785.452 996.604 785.872C996.964 786.292 997.454 786.912 998.084 787.742C991.494 790.942 985.064 794.372 978.814 798.042C979.854 799.812 980.874 801.592 981.884 803.372C982.894 805.162 983.924 806.942 984.954 808.712C987.064 812.312 989.174 815.722 991.294 818.932C994.444 817.082 997.554 815.152 1000.6 813.142C1003.65 811.132 1006.67 808.982 1009.65 806.712C1009.9 807.392 1010.14 807.992 1010.37 808.512C1010.6 809.042 1010.99 809.752 1011.5 810.632C1012.02 811.512 1012.45 812.192 1012.8 812.662C1013.15 813.122 1013.48 813.492 1013.78 813.752C1012.26 814.572 1010.39 815.612 1008.19 816.862C1005.99 818.112 1002.98 819.862 999.164 822.102C995.784 824.082 993.044 825.692 990.944 826.922C988.904 828.122 987.254 829.082 986.014 829.822C984.764 830.542 983.834 831.112 983.214 831.512C982.594 831.912 982.084 832.272 981.674 832.592C979.864 829.052 977.954 825.462 975.954 821.842C973.954 818.212 971.614 814.102 968.924 809.512L962.304 798.222C959.604 793.632 957.164 789.582 954.984 786.072Z" fill="#006AB0"/>
<path d="M1021.3 771.643L1023.65 774.813C1026.82 779.093 1029.68 782.853 1032.25 786.103C1034.81 789.343 1037.38 792.493 1039.96 795.533C1039.01 796.083 1038.02 796.733 1036.98 797.493C1035.95 798.253 1034.79 799.123 1033.5 800.073C1032.21 801.033 1031.05 801.883 1030.02 802.653C1028.99 803.413 1028.07 804.173 1027.27 804.923C1025.11 801.573 1022.85 798.203 1020.48 794.803C1018.12 791.403 1015.36 787.563 1012.19 783.293L1004.39 772.783C1001.22 768.513 998.354 764.743 995.794 761.493C993.234 758.243 990.604 755.023 987.914 751.823C988.864 751.283 989.884 750.663 990.974 749.973C992.064 749.283 993.254 748.463 994.544 747.513C995.934 746.483 997.464 745.243 999.154 743.803C1000.82 742.353 1002.98 740.663 1005.61 738.713C1007.56 737.263 1009.28 736.073 1010.75 735.143C1012.22 734.223 1013.53 733.483 1014.68 732.943C1015.84 732.403 1016.91 732.023 1017.91 731.803C1018.91 731.583 1019.91 731.463 1020.92 731.433C1023.31 731.413 1025.57 731.923 1027.71 732.923C1029.85 733.933 1031.78 735.593 1033.5 737.903C1036.29 741.673 1037.53 745.493 1037.23 749.393C1036.93 753.293 1035.2 757.163 1032.07 761.003C1037.79 763.553 1043.68 765.953 1049.74 768.203C1055.8 770.453 1061.83 772.663 1067.83 774.843C1066.57 775.623 1065.37 776.433 1064.24 777.273C1063.11 778.113 1061.95 778.973 1060.76 779.853C1059.58 780.733 1058.4 781.593 1057.25 782.463C1056.09 783.323 1054.96 784.243 1053.84 785.223L1021.96 771.133L1021.3 771.643ZM1018.26 743.483C1016.8 742.493 1015.34 741.993 1013.87 742.013C1012.4 742.023 1010.83 742.493 1009.16 743.413C1007.49 744.333 1005.59 745.573 1003.48 747.143C1008.52 754.263 1013.64 761.333 1018.83 768.333C1019.18 768.163 1019.5 767.973 1019.8 767.793C1020.1 767.613 1020.38 767.423 1020.64 767.233C1024.04 764.713 1025.97 761.873 1026.42 758.703C1026.87 755.543 1025.72 752.103 1022.97 748.393C1021.29 746.103 1019.72 744.473 1018.26 743.483Z" fill="#006AB0"/>
<path d="M1040.58 727.053C1037.69 724.093 1034.75 721.153 1031.76 718.243C1033.92 716.333 1036.09 714.463 1038.25 712.643C1040.41 710.823 1042.55 708.933 1044.67 706.973C1048.15 703.753 1051.22 700.863 1053.86 698.283C1056.5 695.713 1058.25 693.943 1059.11 692.973C1059.62 693.903 1060.44 694.983 1061.57 696.203C1062.27 696.953 1062.83 697.523 1063.27 697.903C1063.71 698.283 1064.22 698.693 1064.79 699.123C1063.34 700.293 1061.75 701.583 1060.04 702.983C1058.33 704.383 1056.66 705.753 1055.04 707.073C1053.42 708.393 1051.99 709.603 1050.71 710.683C1049.44 711.773 1048.55 712.553 1048.03 713.023C1050.23 715.793 1052.5 718.453 1054.82 721.023C1057.15 723.593 1059.51 726.163 1061.9 728.753C1064.91 725.883 1067.62 723.253 1070.01 720.873C1072.4 718.493 1074.87 715.993 1077.42 713.373C1078.02 714.303 1078.49 715.003 1078.84 715.473C1079.19 715.943 1079.57 716.413 1080.01 716.883C1080.36 717.263 1080.75 717.613 1081.19 717.953C1081.63 718.283 1082.24 718.783 1083.04 719.453C1077.28 723.993 1071.73 728.713 1066.41 733.633C1067.8 735.143 1069.18 736.663 1070.55 738.193C1071.92 739.733 1073.3 741.243 1074.69 742.743C1077.52 745.803 1080.31 748.683 1083.06 751.383C1085.75 748.903 1088.37 746.353 1090.92 743.733C1093.47 741.113 1095.96 738.373 1098.4 735.513C1098.78 736.123 1099.14 736.663 1099.49 737.133C1099.84 737.593 1100.36 738.203 1101.05 738.963C1101.75 739.713 1102.31 740.283 1102.76 740.663C1103.19 741.043 1103.59 741.333 1103.95 741.523C1102.63 742.653 1101.03 744.063 1099.15 745.753C1097.26 747.443 1094.69 749.793 1091.44 752.793C1088.57 755.453 1086.24 757.603 1084.45 759.253C1082.71 760.863 1081.3 762.163 1080.25 763.143C1079.19 764.123 1078.4 764.873 1077.88 765.403C1077.35 765.923 1076.93 766.383 1076.6 766.783C1074.07 763.713 1071.43 760.623 1068.71 757.503C1065.99 754.383 1062.82 750.873 1059.2 746.963L1050.33 737.353C1046.73 733.443 1043.47 730.013 1040.58 727.053Z" fill="#006AB0"/>
<path d="M1097.18 656.583C1095.34 658.893 1094.52 661.313 1094.71 663.843C1094.9 666.373 1095.9 668.363 1097.7 669.803C1099.55 671.283 1101.52 671.923 1103.6 671.743C1105.68 671.553 1107.88 670.993 1110.19 670.043C1112.51 669.103 1114.88 668.003 1117.32 666.743C1119.76 665.493 1122.3 664.523 1124.93 663.833C1127.57 663.153 1130.26 662.973 1132.98 663.303C1135.71 663.633 1138.5 664.943 1141.36 667.233C1143.87 669.233 1145.78 671.543 1147.1 674.153C1148.42 676.763 1149.12 679.533 1149.2 682.473C1149.28 685.413 1148.73 688.403 1147.57 691.453C1146.4 694.503 1144.62 697.533 1142.22 700.533C1140.06 703.243 1137.84 705.423 1135.56 707.103C1133.28 708.773 1131.28 709.823 1129.54 710.243C1128.19 708.343 1126.92 706.633 1125.75 705.123C1124.57 703.613 1123.23 702.053 1121.73 700.433L1122.87 699.003C1124.14 699.683 1125.48 700.143 1126.9 700.373C1128.31 700.603 1129.74 700.593 1131.17 700.333C1132.6 700.083 1134.02 699.523 1135.4 698.663C1136.79 697.803 1138.08 696.623 1139.28 695.113C1141.68 692.103 1142.7 689.283 1142.33 686.653C1141.96 684.023 1140.73 681.873 1138.62 680.193C1136.72 678.673 1134.73 677.983 1132.64 678.123C1130.56 678.263 1128.39 678.793 1126.14 679.703C1123.89 680.613 1121.55 681.703 1119.11 682.953C1116.67 684.203 1114.17 685.163 1111.59 685.813C1109.02 686.463 1106.38 686.613 1103.66 686.263C1100.95 685.903 1098.17 684.583 1095.31 682.303C1092.71 680.223 1090.77 677.923 1089.51 675.393C1088.25 672.853 1087.56 670.283 1087.44 667.643C1087.33 665.013 1087.73 662.403 1088.65 659.813C1089.57 657.223 1090.93 654.803 1092.73 652.543C1094.89 649.843 1097.11 647.733 1099.38 646.223C1101.66 644.713 1103.94 643.693 1106.26 643.163C1107.05 644.533 1107.85 645.813 1108.67 647.003C1109.49 648.193 1110.53 649.693 1111.79 651.513L1110.89 652.643C1105.32 650.823 1100.75 652.133 1097.18 656.583Z" fill="#006AB0"/>
<path d="M1125.98 627.033C1124.67 626.233 1123.69 625.683 1123.02 625.413C1122.5 626.223 1121.88 627.243 1121.17 628.453C1120.46 629.673 1119.71 630.983 1118.92 632.383C1118.13 633.783 1117.35 635.223 1116.59 636.713C1115.83 638.203 1115.14 639.593 1114.53 640.873C1114.01 640.383 1113.48 639.913 1112.94 639.443C1112.4 638.983 1111.83 638.553 1111.24 638.173C1110.64 637.783 1110.03 637.453 1109.38 637.143C1108.73 636.843 1108.08 636.553 1107.41 636.283C1108.65 634.483 1109.77 632.863 1110.77 631.413C1111.79 629.963 1112.8 628.483 1113.82 626.963C1114.83 625.443 1115.94 623.783 1117.13 622.003C1118.32 620.213 1119.73 618.053 1121.36 615.523C1122.99 612.983 1124.37 610.813 1125.51 608.983C1126.65 607.163 1127.69 605.483 1128.64 603.953C1129.58 602.423 1130.49 600.933 1131.36 599.463C1132.23 598.003 1133.17 596.423 1134.2 594.713C1134.72 595.203 1135.25 595.673 1135.8 596.143C1136.34 596.603 1136.91 597.023 1137.5 597.413C1138.09 597.793 1138.71 598.133 1139.36 598.443C1140 598.743 1140.66 599.033 1141.32 599.303C1140.47 600.273 1139.54 601.393 1138.53 602.653C1137.53 603.913 1136.56 605.183 1135.62 606.443C1134.69 607.713 1133.82 608.923 1133 610.073C1132.18 611.223 1131.51 612.203 1130.99 613.013C1131.22 613.233 1131.57 613.523 1132.04 613.863C1132.51 614.203 1133.06 614.583 1133.71 614.993L1138 617.753L1158.21 630.773C1162.69 633.653 1166.7 636.163 1170.25 638.303C1173.8 640.433 1177.31 642.473 1180.79 644.413C1180.09 645.263 1179.39 646.223 1178.7 647.303C1178 648.383 1177.22 649.593 1176.36 650.943C1175.49 652.293 1174.71 653.503 1174.01 654.583C1173.32 655.653 1172.73 656.693 1172.24 657.673C1169.04 655.313 1165.74 652.953 1162.33 650.603C1158.92 648.253 1154.98 645.633 1150.5 642.753L1130.28 629.723C1128.74 628.753 1127.3 627.853 1125.98 627.033Z" fill="#006AB0"/>
<path d="M1218.12 575.493C1217.31 576.813 1216.59 578.083 1215.96 579.303C1215.34 580.533 1214.72 581.753 1214.11 582.943C1213.5 584.143 1212.88 585.363 1212.26 586.583C1211.63 587.813 1211.07 589.063 1210.58 590.323C1207.31 589.813 1203.98 589.303 1200.57 588.783C1197.16 588.273 1193.72 587.823 1190.25 587.423C1189.26 589.223 1188.29 591.033 1187.33 592.843C1186.37 594.653 1185.42 596.473 1184.49 598.303C1183.73 599.793 1182.99 601.293 1182.26 602.783C1181.54 604.283 1180.82 605.793 1180.13 607.313C1182.46 609.933 1184.84 612.483 1187.26 614.933C1189.68 617.393 1192.09 619.733 1194.48 621.953C1194.02 622.583 1193.62 623.223 1193.29 623.883C1192.95 624.543 1192.61 625.213 1192.27 625.903C1191.92 626.583 1191.57 627.273 1191.22 627.963C1190.87 628.653 1190.55 629.423 1190.26 630.283C1189.12 628.843 1187.53 626.883 1185.48 624.393C1183.44 621.913 1181.1 619.143 1178.49 616.083C1175.87 613.023 1173.06 609.743 1170.06 606.243C1167.06 602.733 1164.02 599.213 1160.93 595.663C1157.85 592.113 1154.8 588.623 1151.8 585.193C1148.79 581.753 1145.99 578.583 1143.36 575.673C1143.77 575.163 1144.15 574.673 1144.49 574.203C1144.84 573.733 1145.16 573.213 1145.44 572.633C1145.73 572.063 1145.97 571.493 1146.14 570.943C1146.31 570.383 1146.5 569.793 1146.67 569.163C1152.46 569.803 1158.65 570.493 1165.26 571.233C1171.86 571.963 1178.38 572.633 1184.8 573.233C1191.22 573.833 1197.33 574.353 1203.16 574.803C1208.97 575.233 1213.96 575.463 1218.12 575.493ZM1159.89 584.083C1162.57 587.313 1165.24 590.443 1167.91 593.453C1170.59 596.473 1173.36 599.493 1176.2 602.533L1184.17 586.833C1180.05 586.323 1176 585.823 1172.03 585.353C1168.07 584.883 1164.02 584.453 1159.89 584.083Z" fill="#006AB0"/>
<path d="M1173.32 543.853C1169.37 542.623 1165.38 541.453 1161.36 540.333C1161.84 539.353 1162.33 538.263 1162.84 537.083C1163.34 535.903 1163.86 534.553 1164.38 533.033C1165.07 531.033 1165.77 528.762 1166.47 526.222C1167.18 523.682 1168.22 520.423 1169.6 516.413C1171.4 511.203 1173.5 506.613 1175.92 502.673C1178.34 498.723 1181.2 495.583 1184.5 493.263C1187.81 490.953 1191.65 489.593 1196.03 489.203C1200.4 488.813 1205.47 489.603 1211.23 491.593C1216.27 493.333 1220.52 495.733 1224.01 498.803C1227.5 501.873 1230.18 505.343 1232.07 509.213C1233.96 513.093 1235 517.183 1235.21 521.493C1235.42 525.803 1234.79 530.113 1233.3 534.413C1231.73 538.963 1230.36 542.833 1229.2 546.023C1228.03 549.213 1227.04 551.993 1226.23 554.363C1225.71 555.873 1225.23 557.243 1224.82 558.453C1224.4 559.663 1224.08 560.813 1223.84 561.883C1220.17 560.343 1216.39 558.843 1212.52 557.373C1208.65 555.903 1204.21 554.303 1199.17 552.563L1186.81 548.293C1181.77 546.563 1177.27 545.083 1173.32 543.853ZM1210.45 541.393L1215.91 543.273C1217.67 543.883 1219.28 544.413 1220.75 544.893C1222.21 545.363 1223.16 545.673 1223.58 545.813C1223.95 544.923 1224.39 543.853 1224.89 542.603C1225.39 541.353 1225.96 539.783 1226.61 537.903C1228.97 531.053 1228.51 524.823 1225.22 519.213C1221.93 513.593 1215.55 509.163 1206.1 505.903C1202.34 504.603 1198.81 503.943 1195.49 503.923C1192.18 503.903 1189.16 504.443 1186.44 505.533C1183.72 506.633 1181.36 508.263 1179.36 510.423C1177.36 512.583 1175.81 515.243 1174.73 518.383C1173.98 520.573 1173.41 522.353 1173.04 523.753C1172.66 525.153 1172.29 526.563 1171.93 527.993C1172.35 528.143 1173.29 528.483 1174.73 529.013C1176.17 529.543 1177.81 530.133 1179.63 530.753L1185.08 532.633L1189.63 534.203L1205.82 539.783L1210.45 541.393Z" fill="#006AB0"/>
<path d="M398.144 423.513H324.254V245.493H398.144V303.283H433.074V245.493H507.914V423.513H433.074V357.163H398.144V423.513V423.513Z" fill="#006AB0"/>
<path d="M869.314 423.513H801.744L728.974 244.423H803.614L834.844 349.113L866.524 244.463L944.424 244.103L869.314 423.513Z" fill="#006AB0"/>
<path d="M1239.74 424.073C1211.75 425.883 1191.59 425.543 1167.82 415.783L1150.13 406.783L1170.6 360.173C1170.6 360.173 1209.94 382.353 1230.78 376.053C1242.61 372.483 1239.48 359.763 1225.08 358.353C1207.33 356.613 1184.35 350.193 1172.84 342.243C1163.01 335.453 1155.39 323.173 1156.51 304.343C1159 262.403 1194.03 241.973 1250.6 241.973C1280.26 241.973 1304.98 257.163 1304.98 257.163L1284.45 304.073C1284.45 304.073 1276.69 295.703 1261.53 292.083C1249.27 289.153 1230.34 287.553 1226.61 296.343C1222.88 305.133 1242.87 309.403 1260.99 312.073C1279.11 314.743 1286.58 320.063 1286.58 320.063C1307.37 333.423 1310.15 348.793 1310.15 366.083C1310.15 405.393 1270.66 421.373 1239.74 424.073Z" fill="#006AB0"/>
<path d="M683.464 245.063H598.804L529.034 423.513H608.894L615.734 401.533H662.214L669.054 423.513H749.784L683.464 245.063ZM629.634 357.803L639.404 309.123L648.884 357.803H629.634Z" fill="#006AB0"/>
<path d="M1073.3 245.063H988.644L918.874 423.513H998.734L1005.57 401.533H1052.05L1058.89 423.513H1139.62L1073.3 245.063ZM1019.47 357.803L1029.24 309.123L1038.72 357.803H1019.47Z" fill="#006AB0"/>
</svg>
