<?xml version="1.0" encoding="utf-8"?>
<!-- Generator: Adobe Illustrator 21.1.0, SVG Export Plug-In . SVG Version: 6.00 Build 0)  -->
<svg version="1.1" id="Layer_1" xmlns="http://www.w3.org/2000/svg" xmlns:xlink="http://www.w3.org/1999/xlink" x="0px" y="0px"
	 width="185.4px" height="185.42px" viewBox="0 0 185.4 185.42" style="enable-background:new 0 0 185.4 185.42;"
	 xml:space="preserve">
<style type="text/css">
	.st0{fill:#ED1C24;}
</style>
<g>
	<g>
		<path class="st0" d="M70.84,25.23H25.06v14.71h29.71v10.9H25.06V92.5h45.79V25.23z M54.76,77.79H41.14V65.54h13.63V77.79z
			 M54.27,107.81H41.63v12.75h12.65V107.81z M145.81,120.52v-12.75h-12.63v12.75H145.81z M146.3,92.48h16.07V25.23H86.95v52.49
			h16.06V39.93h13.61v52.54H70.85v43.35H41.87v11.38h28.98v15.23h17.09v-54.67h11.59v21.1h17.1V92.48h16.06V39.93h13.61V92.48z
			 M133.16,135.83v11.38h29.25v-11.38H133.16z"/>
	</g>
</g>
</svg>
